<?xml version="1.0" standalone="no"?>
<!DOCTYPE svg PUBLIC "-//W3C//DTD SVG 20010904//EN"
 "http://www.w3.org/TR/2001/REC-SVG-20010904/DTD/svg10.dtd">
<svg version="1.0" xmlns="http://www.w3.org/2000/svg"
 width="1600.000000pt" height="1200.000000pt" viewBox="0 0 1600.000000 1200.000000"
 preserveAspectRatio="xMidYMid meet">

<g transform="translate(0.000000,1200.000000) scale(0.100000,-0.100000)"
fill="#000000" stroke="none">
<path d="M7660 7915 l0 -485 80 0 80 0 0 145 0 146 63 79 c34 43 65 79 68 79
4 1 20 -29 37 -66 17 -38 65 -139 107 -225 l77 -158 99 0 c54 0 99 4 99 8 0 5
-24 53 -53 108 -29 54 -82 153 -117 219 -34 66 -78 147 -96 181 -19 33 -34 66
-34 73 0 7 61 89 137 184 75 95 141 178 146 185 7 9 -14 12 -99 11 l-109 0
-155 -209 c-85 -115 -158 -209 -162 -209 -5 -1 -8 94 -8 209 l0 210 -80 0 -80
0 0 -485z"/>
<path d="M8460 7915 l0 -485 303 2 302 3 3 77 3 78 -223 2 -223 3 0 130 0 130
198 3 197 2 0 80 0 80 -200 0 -200 0 0 105 0 105 213 2 212 3 3 83 3 82 -296
0 -295 0 0 -485z"/>
<path d="M9200 7915 l0 -485 75 0 75 0 2 371 3 370 48 -238 c27 -131 60 -296
75 -368 l28 -130 76 -3 c72 -3 76 -2 82 21 3 13 28 133 56 268 28 134 61 291
73 349 l22 105 3 -372 2 -373 75 0 75 0 0 485 0 485 -123 0 -123 0 -13 -62
c-39 -195 -125 -587 -128 -584 -4 3 -117 525 -131 601 l-8 40 -122 3 -122 3 0
-486z"/>
<path d="M10130 7915 l0 -485 300 0 300 0 0 80 0 80 -220 0 -220 0 0 135 0
135 200 0 200 0 0 80 0 80 -200 0 -200 0 0 105 0 105 213 2 212 3 3 83 3 82
-296 0 -295 0 0 -485z"/>
<path d="M10870 7915 l0 -485 75 0 75 0 2 310 3 311 157 -308 157 -308 80 -3
81 -3 0 486 0 485 -75 0 -75 0 -1 -322 0 -323 -162 323 -162 322 -77 0 -78 0
0 -485z"/>
<path d="M11614 8384 c3 -9 6 -47 6 -85 l0 -69 115 0 115 0 0 -400 0 -400 80
0 80 0 0 400 0 399 118 3 117 3 3 83 3 82 -322 0 c-289 0 -321 -2 -315 -16z"/>
<path d="M12350 7915 l0 -485 300 0 300 0 0 80 0 80 -220 0 -220 0 0 135 0
135 200 0 200 0 0 80 0 80 -200 0 -200 0 0 105 0 105 213 2 212 3 3 83 3 82
-296 0 -295 0 0 -485z"/>
<path d="M13090 7915 l0 -485 80 0 80 0 0 200 0 200 55 0 c79 0 103 -26 216
-230 l94 -170 93 0 c50 0 92 3 92 6 0 4 -35 74 -77 157 -54 103 -94 168 -130
207 l-52 57 55 22 c32 14 66 38 84 59 94 113 71 346 -40 418 -52 34 -133 44
-352 44 l-198 0 0 -485z m448 295 c35 -32 47 -90 31 -141 -21 -66 -55 -79
-201 -79 l-118 0 0 120 0 120 133 0 c119 0 135 -2 155 -20z"/>
<path d="M13890 7915 l0 -485 80 0 80 0 0 485 0 485 -80 0 -80 0 0 -485z"/>
<path d="M14425 8388 c-2 -7 -70 -219 -150 -470 -80 -252 -148 -465 -151 -473
-5 -13 7 -15 80 -15 l85 0 31 99 c16 54 30 103 30 110 0 8 48 11 163 11 l164
0 33 -110 33 -110 84 0 c57 0 83 4 83 12 0 6 -70 224 -156 485 l-155 473 -85
0 c-59 0 -86 -4 -89 -12z m144 -398 c28 -90 51 -168 51 -172 0 -5 -47 -8 -105
-8 -70 0 -105 4 -105 11 0 6 21 79 46 163 57 188 54 180 58 175 2 -2 27 -78
55 -169z"/>
<path d="M15000 7915 l0 -485 75 0 75 0 2 315 3 316 160 -316 160 -315 77 2
78 3 3 483 4 483 -74 -3 -74 -3 1 -317 c0 -175 -2 -318 -5 -318 -3 0 -77 144
-165 320 l-160 320 -80 0 -80 0 0 -485z"/>
<path d="M9323 7046 c-98 -32 -150 -90 -173 -190 -14 -64 1 -139 41 -199 36
-55 105 -93 248 -137 123 -38 151 -60 151 -120 0 -32 -7 -48 -34 -77 -30 -33
-39 -37 -95 -41 -36 -3 -73 1 -91 8 -42 17 -78 64 -93 117 l-11 44 -56 -6
c-103 -11 -99 -8 -88 -67 19 -105 81 -189 168 -227 122 -54 300 -29 382 54 52
52 73 111 73 205 0 165 -68 232 -300 299 -38 12 -85 30 -103 41 -121 74 16
203 154 145 28 -11 40 -26 57 -65 l21 -51 76 3 75 3 -3 40 c-4 48 -35 121 -65
153 -12 13 -44 35 -72 49 -61 32 -195 41 -262 19z"/>
<path d="M7640 6590 l0 -450 80 0 80 0 0 139 0 139 58 70 c31 39 59 71 62 71
3 0 52 -92 110 -205 58 -114 110 -208 116 -211 6 -2 52 -2 102 -1 l92 3 -146
260 c-81 143 -149 268 -152 277 -2 11 41 70 125 170 70 84 134 161 142 171 13
16 7 17 -92 17 l-105 0 -156 -196 -156 -196 0 196 0 196 -80 0 -80 0 0 -450z"/>
<path d="M8430 6590 l0 -450 295 0 295 0 0 75 0 75 -220 0 -220 0 0 125 0 125
200 0 201 0 -3 73 -3 72 -197 3 -198 2 0 100 0 100 210 0 210 0 0 75 0 75
-285 0 -285 0 0 -450z"/>
<path d="M9889 7033 c0 -5 -2 -207 -2 -450 l-2 -443 298 0 297 0 0 75 0 75
-220 0 -220 0 0 125 0 125 200 0 200 0 0 75 0 75 -200 0 -200 0 0 100 0 100
210 0 210 0 0 75 0 75 -285 0 c-157 0 -285 -3 -286 -7z"/>
<path d="M10612 6593 l3 -448 77 -3 78 -3 2 198 3 198 153 3 152 3 0 -201 0
-200 80 0 80 0 0 450 0 450 -80 0 -80 0 0 -175 0 -175 -155 0 -155 0 0 175 0
175 -80 0 -80 0 2 -447z"/>
<path d="M11625 7028 c-26 -71 -295 -874 -295 -880 0 -5 37 -8 82 -6 l81 3 32
95 32 95 160 3 160 2 23 -77 c38 -131 30 -123 128 -123 76 0 83 2 77 18 -6 14
-204 584 -282 810 l-25 72 -84 0 c-59 0 -86 -4 -89 -12z m195 -525 c0 -2 -47
-3 -105 -3 -58 0 -105 3 -105 6 0 3 23 78 51 165 l51 160 54 -163 c30 -90 54
-164 54 -165z"/>
<path d="M12060 6965 l0 -75 115 0 115 0 0 -375 0 -375 80 0 80 0 0 375 0 375
115 0 115 0 0 75 0 75 -310 0 -310 0 0 -75z"/>
<path d="M12773 6590 l-152 -450 85 0 c59 0 86 4 89 13 2 6 16 51 31 100 l27
87 160 -2 161 -3 31 -97 30 -98 87 0 87 0 -23 63 c-13 34 -83 236 -157 449
l-134 388 -85 0 -85 0 -152 -450z m293 70 l52 -160 -108 0 -107 0 50 160 c28
88 54 160 57 160 3 0 28 -72 56 -160z"/>
<path d="M13490 6590 l0 -450 75 0 75 0 2 291 3 291 155 -291 155 -291 80 0
80 0 0 450 0 450 -72 0 -73 0 -2 -299 -3 -299 -158 299 -159 299 -79 0 -79 0
0 -450z"/>
<path d="M7660 5286 l0 -486 75 0 75 0 0 200 0 200 50 0 c74 0 100 -28 205
-229 l90 -171 93 0 93 0 -83 163 c-58 116 -96 177 -131 215 -35 36 -45 52 -33
52 26 0 88 35 118 67 112 118 77 378 -60 445 -44 21 -62 23 -269 26 l-223 4 0
-486z m411 304 c67 -36 62 -187 -7 -219 -14 -6 -75 -11 -139 -11 l-115 0 0
120 0 120 121 0 c66 0 129 -5 140 -10z"/>
<path d="M8427 5763 c-4 -3 -7 -222 -7 -485 l0 -478 290 0 290 0 0 80 0 80
-210 0 -210 0 0 130 0 130 188 2 187 3 3 83 3 82 -191 0 -190 0 0 105 0 105
205 0 206 0 -3 83 -3 82 -276 3 c-151 1 -278 -1 -282 -5z"/>
<path d="M9138 5764 c-5 -4 -8 -223 -8 -486 l0 -478 80 0 80 0 0 180 0 180 83
1 c45 0 93 2 107 5 14 2 39 6 56 9 119 21 199 189 172 363 -12 76 -33 125 -74
166 -52 52 -82 59 -294 64 -107 2 -198 1 -202 -4z m381 -200 c51 -57 49 -154
-5 -205 -23 -21 -36 -24 -125 -27 l-99 -4 0 137 0 137 101 -4 c98 -3 101 -4
128 -34z"/>
<path d="M9844 5755 c-3 -8 -4 -175 -2 -372 5 -396 9 -423 71 -505 47 -62 111
-91 212 -96 143 -8 239 42 285 149 30 70 41 246 38 574 l-3 260 -77 3 -78 3 0
-341 c0 -219 -4 -357 -11 -386 -17 -65 -55 -94 -126 -94 -70 0 -107 22 -136
80 -22 44 -22 52 -20 375 1 182 0 338 -3 348 -4 14 -17 17 -75 17 -52 0 -71
-4 -75 -15z"/>
<path d="M10610 5286 l0 -486 225 0 c181 0 233 3 263 16 92 38 144 134 144
265 1 65 -4 84 -28 130 -18 33 -44 64 -67 78 l-37 25 29 30 c111 117 84 327
-51 398 -40 20 -59 22 -260 26 l-218 4 0 -486z m409 302 c30 -18 47 -79 35
-125 -16 -63 -48 -77 -180 -81 l-114 -4 0 109 c0 61 3 113 8 118 12 12 227 -2
251 -17z m31 -405 c56 -62 49 -166 -13 -203 -27 -17 -51 -20 -154 -20 l-123 0
0 131 0 131 131 -3 131 -4 28 -32z"/>
<path d="M12020 5285 l0 -485 75 0 75 0 0 485 0 485 -75 0 -75 0 0 -485z"/>
<path d="M12320 5285 l0 -485 80 0 80 0 0 148 1 147 59 79 60 79 47 -103 c27
-57 73 -158 104 -224 l55 -121 97 -3 c53 -1 97 0 97 4 0 4 -65 135 -145 292
-80 158 -144 291 -141 297 2 5 65 90 140 188 75 98 136 180 136 183 0 3 -46 3
-102 2 l-102 -3 -151 -208 -150 -208 -5 208 -5 208 -77 3 -78 3 0 -486z"/>
<path d="M11380 5280 l0 -480 270 0 271 0 -3 78 -3 77 -192 3 -193 2 0 400 0
400 -75 0 -75 0 0 -480z"/>
<path d="M9889 4428 c-147 -52 -240 -186 -260 -379 -20 -198 34 -374 145 -472
70 -61 208 -96 316 -80 218 34 340 204 340 473 0 225 -92 391 -250 452 -84 32
-207 35 -291 6z m219 -154 c107 -44 162 -171 149 -342 -8 -105 -32 -167 -81
-217 -82 -82 -201 -86 -286 -9 -57 52 -83 120 -88 235 -8 176 32 274 129 323
61 30 121 34 177 10z"/>
<path d="M12343 4432 c-76 -27 -122 -67 -151 -131 -42 -90 -34 -184 21 -264
37 -53 96 -86 243 -132 156 -49 184 -69 184 -129 0 -101 -132 -159 -247 -107
-44 21 -59 40 -84 111 -9 25 -18 45 -20 44 -2 -1 -39 -4 -81 -8 -88 -9 -82 2
-56 -101 24 -95 93 -171 183 -202 70 -24 222 -24 294 1 206 71 246 381 63 497
-26 16 -99 46 -162 66 -142 44 -183 64 -198 97 -29 63 33 117 133 117 86 0
122 -27 149 -114 5 -15 16 -17 83 -15 l78 3 -1 52 c-2 56 -31 119 -76 160 -70
65 -249 93 -355 55z"/>
<path d="M7650 3970 l0 -460 85 0 85 0 0 460 0 460 -85 0 -85 0 0 -460z"/>
<path d="M7980 3970 l0 -460 80 0 81 0 -3 300 c-2 202 0 296 7 287 6 -8 82
-143 169 -301 l159 -286 84 0 83 0 0 460 0 460 -81 0 -80 0 3 -300 c2 -165 1
-300 -2 -300 -3 0 -79 135 -170 300 l-165 300 -82 0 -83 0 0 -460z"/>
<path d="M8820 3970 l0 -462 223 4 c217 3 223 4 272 30 136 71 199 208 198
428 0 174 -38 290 -120 374 -72 74 -99 81 -350 84 l-223 3 0 -461z m416 284
c74 -35 103 -115 104 -281 0 -119 -13 -189 -43 -235 -38 -55 -73 -69 -197 -75
l-110 -6 0 313 0 313 105 -6 c67 -4 117 -12 141 -23z"/>
<path d="M10560 3970 l0 -460 80 0 80 0 0 302 0 303 167 -303 168 -302 82 0
83 0 2 460 3 460 -77 0 -78 0 -2 -305 -3 -306 -169 306 -169 305 -83 0 -84 0
0 -460z"/>
<path d="M11400 3970 l0 -460 315 0 315 0 0 75 0 75 -230 0 -230 0 0 130 0
130 208 -2 207 -2 3 77 3 77 -211 0 -210 0 0 105 0 105 225 0 225 0 0 75 0 75
-310 0 -310 0 0 -460z"/>
<path d="M12948 3970 l2 -460 85 0 85 0 0 460 0 460 -87 0 -88 0 3 -460z"/>
<path d="M13497 4388 c-9 -24 -54 -153 -101 -288 -46 -135 -112 -323 -145
-417 l-60 -173 89 0 88 0 35 103 34 102 168 0 168 0 35 -102 34 -103 89 0 c49
0 89 2 89 4 0 5 -169 478 -200 561 -10 28 -43 118 -73 200 l-54 150 -90 3 -90
3 -16 -43z m213 -500 c0 -4 -50 -8 -111 -8 -102 0 -111 1 -104 18 4 9 27 80
52 157 25 77 48 144 51 149 4 8 112 -295 112 -316z"/>
</g>
</svg>
